# xmcd
#
# Track frame offsets: 
#        150
#        15050
#        30155
#        45747
#        59745
#        74007
#        87502
#        101870
#        122765
#        137365
#        149385
#        164645
#        177802
#        192290
#        205097
#        218540
#        231577
#
# Disc length: 3266 seconds
#
# Revision: 1
# Processed by: cddbd v1.5.2PL0 Copyright (c) Steve Scherf et al.
# Submitted via: ExactAudioCopy v0.99pb4
#
DISCID=f40cc011
DTITLE=Various Artist - The Story Of Jazz Vol.2 - The Jazz Age
DYEAR=1900
DGENRE=Jazz
TTITLE0=Paul Whiteman And His Orchestra - I'll Build A Stairway To Par
TTITLE0=adise
TTITLE1=Waring's Pennsyvanians - Nashville Nightingale
TTITLE2=Red Onion Jazz Babies - Cake Walking Babies From Home
TTITLE3=Ross Gorman And His Earl Carroll Orchestra - Rhythm Of The Day
TTITLE4=Ben Selvin And His Orchestra - Sweet And Low Down - That Certa
TTITLE4=in Feeling
TTITLE5=Jungle Kings - Friars Point Shuffle
TTITLE6=Bix Beiderbecke - Riverboat Shuffle
TTITLE7=Red And Miff Stompers - Stampede
TTITLE8=Celestin's Original Tuexdo Jazz Orchestra - As You Like It
TTITLE9=The Chaleston Chasers - Wabash Blues
TTITLE10=Louis Dumaine's Jazzola Eight - Franklin Street Blues
TTITLE11=Red Nichols And His Orchestra - Harlem Twist
TTITLE12=Barrelhouse Five - Mama Stayed Out
TTITLE13=Miff Mole And His Molers - That's A Plenty
TTITLE14=Henry Allen And His New York Orchestra - Pleasing Paul
TTITLE15=New Orleans Feetwarmers - Sweetie Dear
TTITLE16=New Orleans Rhythm Kings - Panama
EXTD=
EXTT0=
EXTT1=
EXTT2=
EXTT3=
EXTT4=
EXTT5=
EXTT6=
EXTT7=
EXTT8=
EXTT9=
EXTT10=
EXTT11=
EXTT12=
EXTT13=
EXTT14=
EXTT15=
EXTT16=
PLAYORDER=
